<svg width="186" height="212" viewBox="0 0 186 212" fill="none" xmlns="http://www.w3.org/2000/svg">
<g id="Group 1171274837">
<g id="Frame 427320800">
<g id="Group 427320798">
<rect id="Rectangle 6101" x="49" y="18.4194" width="88" height="88" rx="16" fill="#2A59F2"/>
<path id="Union" fill-rule="evenodd" clip-rule="evenodd" d="M106.445 39.2034L92.5129 31.1304L78.5768 39.2034L64.6444 47.2765V62.0115L88.356 75.7513L92.5111 78.1595L96.6662 75.7513L110.106 67.9623V57.0281L92.5111 67.3311L69.2935 53.7342L92.5111 40.1374L93.9282 40.9673L105.576 47.789L101.892 50.0245L100.1 51.1125L92.5129 46.6694L80.4472 53.7361L92.5129 60.8028L104.579 53.7361L110.155 50.4719L115.729 53.7324V71.1893L97.3821 81.821L95.3231 83.0149V94.0865L106.445 87.6418L120.378 79.5688V63.4226V47.2765L106.445 39.2034ZM89.701 82.9223L87.8214 81.7693L64.6464 68.3396V79.5709L78.5788 87.644L89.701 94.0887V82.9223Z" fill="url(#paint0_linear_1399_6151)"/>
</g>
<g id="Group 427320799">
<path id="Vector" fill-rule="evenodd" clip-rule="evenodd" d="M65.4556 126.419H71.5875V128.229H85.5395V132.728H51.8475V128.229H65.4556V126.419ZM57.2164 133.498H62.6209L63.7318 136.961H74.3866L75.8059 133.498H81.325L79.9452 136.961H84.9267V157.077C84.9267 158.438 84.5037 159.553 83.6616 160.422C82.9974 161.192 82.0248 161.576 80.7478 161.576H76.6836V159.382C76.1736 159.664 75.5212 159.807 74.7305 159.807H59.0153V148.959H78.178V156.192C78.178 156.629 78.1385 157.026 78.0634 157.387H78.945C79.5341 157.387 79.8266 156.732 79.8266 155.427V141.31H74.8808V142.964C74.8808 143.476 75.1891 143.734 75.8019 143.734H78.945V147.773H72.9277C71.1407 147.773 70.2433 146.98 70.2433 145.389V141.31H66.946V145.079C66.946 146.67 66.0525 147.464 64.2616 147.464H58.5488V143.425H61.6918C62.099 143.425 62.3046 143.167 62.3046 142.655V141.31H57.5129V161.58H52.4168V136.961H58.3195L57.2164 133.498ZM72.5087 155.577C73.0977 155.577 73.3903 155.129 73.3903 154.232V153.193H63.8069V155.577H72.5087Z" fill="#343A4A"/>
<path id="Vector_2" fill-rule="evenodd" clip-rule="evenodd" d="M132.658 127.37V132.178H101.227V127.37H132.658ZM134.152 139.102V144.065H112.574L106.596 155.183H127.408C127.815 155.183 128.021 155.028 128.021 154.722L126.68 149.029H132.199L133.389 154.068C133.441 154.195 133.504 154.568 133.579 155.183V157.722C133.579 159.337 132.571 160.146 130.551 160.146H100.615V155.647L106.632 144.069H99.733V139.106H134.152V139.102Z" fill="#343A4A"/>
</g>
</g>
<g id="Frame 427321497">
<g id="Frame 427321496">
<path id="&#231;&#174;&#128;&#229;&#141;&#149;" d="M4.06 192.96C3.3 194.08 2.53333 195.047 1.76 195.86L0.96 195.22C1.61333 194.567 2.29333 193.733 3 192.72C3.70667 191.693 4.26 190.773 4.66 189.96L5.7 190.2C5.39333 190.827 5.05333 191.433 4.68 192.02H10V192.96H6.72C7.04 193.507 7.37333 194.14 7.72 194.86L6.84 195.26C6.52 194.54 6.12667 193.773 5.66 192.96H4.06ZM18.82 192.02V192.96H14.94C15.38 193.68 15.74 194.313 16.02 194.86L15.2 195.3C14.8 194.487 14.3667 193.707 13.9 192.96H11.94C11.4333 193.827 10.9133 194.593 10.38 195.26L9.48 194.76C10.6 193.4 11.5533 191.813 12.34 190L13.34 190.22C13.1 190.78 12.8133 191.38 12.48 192.02H18.82ZM3.92 194.88C4.6 195.493 5.39333 196.273 6.3 197.22L5.6 197.94C4.84 197.1 4.05333 196.307 3.24 195.56L3.92 194.88ZM7.38 196.86V195.9H17.5V206.02C17.5 206.673 17.4333 207.147 17.3 207.44C17.1667 207.747 16.92 207.953 16.56 208.06C16.2 208.167 15.6333 208.22 14.86 208.22C14.3133 208.22 13.6933 208.187 13 208.12L12.8 207.16C13.4933 207.253 14.22 207.3 14.98 207.3C15.4067 207.3 15.72 207.26 15.92 207.18C16.12 207.1 16.26 206.96 16.34 206.76C16.42 206.547 16.46 206.213 16.46 205.76V196.86H7.38ZM3.56 208.24H2.52V197.7H3.56V208.24ZM6.4 198.9H13.6V205.88H6.4V198.9ZM12.64 201.96V199.8H7.36V201.96H12.64ZM7.36 202.88V205.02H12.64V202.88H7.36ZM38.82 203.72V204.72H30.52V208.52H29.48V204.72H21.18V203.72H29.48V201.22H23.2V193.14H27.28C26.6267 192.287 25.9467 191.487 25.24 190.74L26.04 190.2C26.52 190.693 27.2133 191.5 28.12 192.62L27.38 193.14H31.5C32.0333 192.54 32.8 191.553 33.8 190.18L34.74 190.62C34.1267 191.487 33.4867 192.327 32.82 193.14H36.8V201.22H30.52V203.72H38.82ZM29.48 196.72V194.1H24.24V196.72H29.48ZM30.52 196.72H35.76V194.1H30.52V196.72ZM24.24 197.66V200.3H29.48V197.66H24.24ZM30.52 197.66V200.3H35.76V197.66H30.52Z" fill="#343A4A"/>
<circle id="Ellipse 679" cx="55" cy="200" r="3" fill="#505976"/>
<path id="&#229;&#138;&#161;&#229;&#174;&#158;" d="M86.7553 197.02C88.7153 197.873 91.4086 198.62 94.8353 199.26L94.5753 200.28C92.6153 199.893 90.9153 199.487 89.4753 199.06C88.0486 198.62 86.782 198.127 85.6753 197.58C83.302 198.713 80.362 199.693 76.8553 200.52L76.5153 199.5C79.7553 198.78 82.4486 197.94 84.5953 196.98C83.222 196.167 81.962 195.147 80.8153 193.92C79.7753 195 78.722 195.913 77.6553 196.66L77.0553 195.9C78.0953 195.167 79.1353 194.247 80.1753 193.14C81.2153 192.02 82.0286 190.973 82.6153 190L83.5553 190.42C83.2753 190.9 82.8686 191.487 82.3353 192.18H92.0153V193.06C90.482 194.647 88.7286 195.967 86.7553 197.02ZM81.4953 193.18C82.6953 194.567 84.082 195.667 85.6553 196.48C87.5886 195.507 89.1953 194.373 90.4753 193.08H81.5953L81.4953 193.18ZM84.3753 201.36C84.3753 201.4 84.3686 201.433 84.3553 201.46H92.1953C92.0486 202.993 91.842 204.453 91.5753 205.84C91.402 206.68 91.122 207.293 90.7353 207.68C90.3486 208.067 89.7486 208.26 88.9353 208.26C87.7353 208.26 86.582 208.193 85.4753 208.06L85.3153 207.1C86.5686 207.26 87.6553 207.34 88.5753 207.34C89.162 207.34 89.5886 207.22 89.8553 206.98C90.1353 206.727 90.3486 206.273 90.4953 205.62C90.7353 204.607 90.9086 203.54 91.0153 202.42H84.1753C83.9486 203.38 83.582 204.207 83.0753 204.9C82.5686 205.593 81.8686 206.233 80.9753 206.82C80.0953 207.393 78.9286 207.987 77.4753 208.6L76.8953 207.72C78.2286 207.187 79.302 206.667 80.1153 206.16C80.942 205.653 81.5886 205.107 82.0553 204.52C82.522 203.92 82.862 203.22 83.0753 202.42H77.5153V201.46H83.2753L83.2953 201.26C83.442 200.153 83.5153 199.487 83.5153 199.26L84.6153 199.28C84.5486 199.893 84.4686 200.587 84.3753 201.36ZM98.7153 193.58V196.36H97.6953V192.6H105.655C105.402 192.027 105.042 191.253 104.575 190.28L105.655 189.94C105.829 190.287 106.129 190.953 106.555 191.94L106.835 192.6H113.735V196.4H112.675V193.58H98.7153ZM114.475 203.1H107.275C107.115 203.447 106.955 203.733 106.795 203.96C110.555 205.68 113.029 206.8 114.215 207.32L113.715 208.3L112.895 207.92C112.175 207.587 111.062 207.067 109.555 206.36C108.049 205.64 106.915 205.113 106.155 204.78C105.395 205.607 104.322 206.313 102.935 206.9C101.562 207.473 99.7553 208.007 97.5153 208.5L97.1553 207.48C99.782 206.92 101.782 206.3 103.155 205.62C104.542 204.94 105.515 204.1 106.075 203.1H96.8153V202.12H106.515C106.795 201.333 106.955 200.253 106.995 198.88C107.009 198.56 107.035 197.453 107.075 195.56L107.095 194.76H108.175C108.175 195.373 108.162 196.08 108.135 196.88C108.122 197.68 108.102 198.393 108.075 199.02C108.035 200.207 107.889 201.24 107.635 202.12H114.475V203.1ZM104.955 198.28C104.409 197.92 103.695 197.48 102.815 196.96C101.935 196.427 101.222 196.013 100.675 195.72L101.135 194.86C101.682 195.153 102.389 195.553 103.255 196.06C104.135 196.567 104.862 197.007 105.435 197.38L104.955 198.28ZM99.5353 197.86C100.242 198.233 101.055 198.68 101.975 199.2C102.895 199.72 103.629 200.147 104.175 200.48L103.655 201.32C103.095 200.973 102.335 200.527 101.375 199.98C100.429 199.42 99.662 198.987 99.0753 198.68L99.5353 197.86Z" fill="#343A4A"/>
<circle id="Ellipse 680" cx="131" cy="200" r="3" fill="#505976"/>
<path id="&#233;&#171;&#152;&#230;&#149;&#136;" d="M164.96 192.16V193.08H147.1V192.16H155.82L154.88 190.3L155.94 189.94C156.22 190.42 156.587 191.16 157.04 192.16H164.96ZM150.2 198.18V194.72H161.86V198.18H150.2ZM151.24 197.38H160.82V195.5H151.24V197.38ZM148.46 208.28V199.82H163.6V206C163.6 206.8 163.447 207.36 163.14 207.68C162.847 208.013 162.333 208.187 161.6 208.2C160.813 208.227 160.027 208.187 159.24 208.08L159.06 207.16C159.767 207.253 160.527 207.3 161.34 207.3C161.82 207.3 162.147 207.187 162.32 206.96C162.507 206.733 162.6 206.34 162.6 205.78V200.7H149.46V208.28H148.46ZM152.22 202.32H159.84V205.98H152.22V202.32ZM153.22 205.16H158.84V203.14H153.22V205.16ZM175.94 193.3V194.38H167.02V193.3H171.42C171.113 192.447 170.74 191.527 170.3 190.54L171.28 190.2C171.747 191.307 172.133 192.34 172.44 193.3H175.94ZM180.92 203.28C182 204.933 183.453 206.433 185.28 207.78L184.64 208.72C182.853 207.4 181.42 205.913 180.34 204.26C179.313 205.793 177.86 207.3 175.98 208.78L175.28 207.9C177.24 206.407 178.727 204.867 179.74 203.28C178.633 201.333 177.873 199.013 177.46 196.32C177.087 197.053 176.687 197.753 176.26 198.42L175.6 197.62C176.227 196.647 176.813 195.48 177.36 194.12C177.907 192.747 178.293 191.48 178.52 190.32L179.56 190.46C179.307 191.58 178.96 192.72 178.52 193.88H185.12V194.94H183.22C183.02 196.727 182.74 198.287 182.38 199.62C182.02 200.953 181.533 202.173 180.92 203.28ZM178.16 194.94C178.507 197.807 179.227 200.247 180.32 202.26C180.84 201.26 181.24 200.18 181.52 199.02C181.813 197.847 182.047 196.487 182.22 194.94H178.16ZM170.76 195.86C170.267 196.767 169.727 197.653 169.14 198.52C168.567 199.387 167.993 200.14 167.42 200.78L166.7 200.14C167.247 199.54 167.8 198.813 168.36 197.96C168.933 197.093 169.44 196.233 169.88 195.38L170.76 195.86ZM175.26 200.36C174.86 199.68 174.38 198.907 173.82 198.04C173.273 197.173 172.8 196.46 172.4 195.9L173.14 195.38C173.567 195.953 174.06 196.667 174.62 197.52C175.193 198.36 175.673 199.107 176.06 199.76L175.26 200.36ZM174.5 207.14C173.647 206.073 172.793 205.053 171.94 204.08C170.82 205.787 169.28 207.313 167.32 208.66L166.66 207.8C168.66 206.467 170.193 204.96 171.26 203.28C170.353 202.213 169.48 201.24 168.64 200.36L169.36 199.7C169.947 200.287 170.767 201.167 171.82 202.34C172.327 201.393 172.747 200.367 173.08 199.26L174.04 199.6C173.587 200.987 173.08 202.167 172.52 203.14C173.613 204.407 174.54 205.513 175.3 206.46L174.5 207.14Z" fill="#343A4A"/>
</g>
</g>
</g>
<defs>
<linearGradient id="paint0_linear_1399_6151" x1="106.444" y1="37.839" x2="79.6098" y2="86.8638" gradientUnits="userSpaceOnUse">
<stop stop-color="white"/>
<stop offset="1" stop-color="white" stop-opacity="0.6"/>
</linearGradient>
</defs>
</svg>
